<svg xmlns="http://www.w3.org/2000/svg" viewBox="0 0 116.67 116.67"><defs><style>.cls-1{fill:#0a165e;}.cls-2{fill:#2b4dff;}.cls-3{fill:#fff;}</style></defs><g id="Camada_2" data-name="Camada 2"><g id="Camada_1-2" data-name="Camada 1"><circle class="cls-1" cx="58.33" cy="58.33" r="58.33"></circle><circle class="cls-2" cx="58.33" cy="58.86" r="50.14"></circle><path class="cls-3" d="M27.81,44.92l5.75-15.65H35L40.7,44.92H39.25l-1.43-4H30.68l-1.42,4Zm3.31-5.23h6.24L34,30.32h.51Z"></path><path class="cls-3" d="M43,44.92V29.27h1.14l9.49,13.59h-.44V29.27h1.34V44.92H53.43L43.89,31.25h.49V44.92Z"></path><path class="cls-3" d="M65.8,45.17a7.83,7.83,0,0,1-3-.59,7.44,7.44,0,0,1-2.47-1.67,7.86,7.86,0,0,1-1.66-2.56,9.3,9.3,0,0,1,0-6.52,7.78,7.78,0,0,1,1.67-2.55,7.65,7.65,0,0,1,2.47-1.67,7.95,7.95,0,0,1,6,0,7.63,7.63,0,0,1,4.14,4.23,9.27,9.27,0,0,1,0,6.51,7.86,7.86,0,0,1-1.66,2.56,7.44,7.44,0,0,1-2.47,1.67A7.75,7.75,0,0,1,65.8,45.17Zm0-1.28a6.15,6.15,0,0,0,2.58-.54,6.08,6.08,0,0,0,2-1.48,6.92,6.92,0,0,0,1.31-2.17,7.61,7.61,0,0,0,0-5.21,6.92,6.92,0,0,0-1.31-2.17,6.18,6.18,0,0,0-2-1.48,6.1,6.1,0,0,0-2.59-.54,6.19,6.19,0,0,0-2.61.54,6.07,6.07,0,0,0-2,1.48,6.76,6.76,0,0,0-1.32,2.17,7.61,7.61,0,0,0,0,5.21,6.76,6.76,0,0,0,1.32,2.17,5.94,5.94,0,0,0,2,1.48A6.19,6.19,0,0,0,65.8,43.89Z"></path><path class="cls-3" d="M82.07,45.17a6.08,6.08,0,0,1-2.67-.56,5.71,5.71,0,0,1-2-1.49,5.78,5.78,0,0,1-1.12-2l1.22-.42a4.86,4.86,0,0,0,1.73,2.43,5.12,5.12,0,0,0,4.67.49,3,3,0,0,0,1.28-1,2.58,2.58,0,0,0,.46-1.55A2.49,2.49,0,0,0,85,39.17a4,4,0,0,0-1.77-1l-2.86-.84a4.69,4.69,0,0,1-2.57-1.63A4.14,4.14,0,0,1,77,33.18a3.91,3.91,0,0,1,.6-2.17,4.08,4.08,0,0,1,1.62-1.46A5.09,5.09,0,0,1,81.52,29a5.48,5.48,0,0,1,2.43.52,5.94,5.94,0,0,1,1.84,1.34,4.91,4.91,0,0,1,1.07,1.84l-1.2.44a4.19,4.19,0,0,0-4.11-2.94,3.77,3.77,0,0,0-1.68.36,2.76,2.76,0,0,0-1.16,1A3,3,0,0,0,78.9,35a3.88,3.88,0,0,0,2,1.19l2.58.78a5.46,5.46,0,0,1,2.59,1.53A3.69,3.69,0,0,1,87,41a3.83,3.83,0,0,1-.64,2.18,4.47,4.47,0,0,1-1.76,1.47A5.91,5.91,0,0,1,82.07,45.17Z"></path><path class="cls-3" d="M40.4,91a15.26,15.26,0,0,1-5.88-1.16,13.64,13.64,0,0,1-4.84-3.29,10.43,10.43,0,0,1-2.63-5.13L34.11,79a6.5,6.5,0,0,0,2.47,3.61,6.8,6.8,0,0,0,3.82,1.13A6.34,6.34,0,0,0,43.54,83a5.16,5.16,0,0,0,2.08-2.11,6.49,6.49,0,0,0,.75-3.17,6.32,6.32,0,0,0-.75-3.14,5.29,5.29,0,0,0-2.08-2.09,6.45,6.45,0,0,0-3.14-.74,6.71,6.71,0,0,0-3.3.79A4.73,4.73,0,0,0,35,75l-6.55-1.54L31.53,52H53v6.7H34.78l3-3.61L35.66,71l-2.17-1.91A7.93,7.93,0,0,1,36.76,66a11.67,11.67,0,0,1,5.13-1,13,13,0,0,1,6.65,1.62,11.25,11.25,0,0,1,4.3,4.46,13.79,13.79,0,0,1,1.52,6.59,12.81,12.81,0,0,1-1.83,6.78,13.09,13.09,0,0,1-5,4.74A14.64,14.64,0,0,1,40.4,91Z"></path><path class="cls-3" d="M72.29,91a13.56,13.56,0,0,1-8.07-2.47,16.34,16.34,0,0,1-5.43-7,25.74,25.74,0,0,1-2-10.41,25.86,25.86,0,0,1,1.93-10.41,16.18,16.18,0,0,1,5.41-6.9,13.57,13.57,0,0,1,8.07-2.48,13.72,13.72,0,0,1,8.16,2.48,16.15,16.15,0,0,1,5.41,6.93,25.88,25.88,0,0,1,1.93,10.38A25.88,25.88,0,0,1,85.81,81.5a16.27,16.27,0,0,1-5.41,7A13.51,13.51,0,0,1,72.29,91Zm0-7.21a5.87,5.87,0,0,0,4.07-1.49,9.44,9.44,0,0,0,2.52-4.33,23.34,23.34,0,0,0,.88-6.8,23.1,23.1,0,0,0-.88-6.78A9.3,9.3,0,0,0,76.33,60a6,6,0,0,0-4.09-1.49,5.8,5.8,0,0,0-4,1.49,9.54,9.54,0,0,0-2.53,4.3,23.13,23.13,0,0,0-.87,6.78,23.15,23.15,0,0,0,.87,6.75,9.6,9.6,0,0,0,2.55,4.35A5.84,5.84,0,0,0,72.29,83.74Z"></path></g></g></svg>